<?xml version="1.0" encoding="UTF-8" standalone="no"?>
<!DOCTYPE svg PUBLIC "-//W3C//DTD SVG 1.1//EN" "http://www.w3.org/Graphics/SVG/1.1/DTD/svg11.dtd">
<svg version="1.1" xmlns="http://www.w3.org/2000/svg" xmlns:xlink="http://www.w3.org/1999/xlink" preserveAspectRatio="xMidYMid meet" viewBox="-0.8210420118342938 -1 89.4 89.4" width="85.4" height="85.4"><defs><path d="M42.88 0C19.3 0 0.18 19.12 0.18 42.7C0.18 46.83 0.18 79.85 0.18 83.98C0.18 84.76 0.82 85.4 1.6 85.4C5.73 85.4 38.75 85.4 42.88 85.4C66.46 85.4 85.58 66.28 85.58 42.7C85.58 38.57 85.58 5.55 85.58 1.42C85.58 0.64 84.94 0 84.16 0C75.9 0 47.01 0 42.88 0Z" id="aPfxtGen1"></path><linearGradient id="gradienta1xMAOsOgt" gradientUnits="userSpaceOnUse" x1="0.6" y1="84.98" x2="85.16" y2="0.42"><stop style="stop-color: #076000;stop-opacity: 1" offset="0%"></stop><stop style="stop-color: #208d37;stop-opacity: 1" offset="100%"></stop></linearGradient><path d="M54.71 35.63C54.71 35.32 54.71 32.86 54.71 32.55C53.56 32.41 52.39 32.33 51.2 32.33C46.83 32.33 42.69 33.3 39 35.02C29.75 39.32 23.37 48.33 23.37 58.74C23.37 58.96 23.37 60.06 23.37 62.04C25.46 62.04 26.62 62.04 26.85 62.04C31.21 62.04 35.34 61.08 39.02 59.38C48.3 55.09 54.71 46.06 54.71 35.63Z" id="a3aLRUAWH"></path><path d="M43.49 39.02C43.49 39.33 43.49 41.79 43.49 42.1C44.63 42.24 45.8 42.32 46.99 42.32C51.36 42.32 55.5 41.35 59.19 39.63C68.44 35.33 74.82 26.32 74.82 15.91C74.82 15.69 74.82 14.59 74.82 12.61C72.73 12.61 71.57 12.61 71.34 12.61C66.98 12.61 62.85 13.57 59.17 15.27C49.9 19.56 43.49 28.59 43.49 39.02Z" id="c2cgfqlPpl"></path><path d="M42.77 35.97C42.77 35.66 42.77 33.19 42.77 32.89C43.91 32.75 45.08 32.67 46.27 32.67C50.64 32.67 54.78 33.64 58.47 35.35C67.72 39.65 74.1 48.67 74.1 59.07C74.1 59.29 74.1 60.39 74.1 62.37C72.01 62.37 70.85 62.37 70.62 62.37C66.26 62.37 62.13 61.42 58.45 59.72C49.18 55.43 42.77 46.39 42.77 35.97Z" id="dAiBvsTrB"></path><path d="M53.99 39.36C53.99 39.66 53.99 42.13 53.99 42.44C52.84 42.58 51.67 42.66 50.48 42.66C46.11 42.65 41.97 41.69 38.28 39.97C29.03 35.67 22.65 26.65 22.65 16.25C22.65 16.03 22.65 14.93 22.65 12.95C24.74 12.95 25.9 12.95 26.13 12.95C30.49 12.95 34.62 13.91 38.3 15.61C47.58 19.9 53.99 28.93 53.99 39.36Z" id="d830PlFJx"></path><path d="M24.48 47.54C24.51 47.45 24.8 46.69 24.83 46.6C24.5 46.43 24.15 46.27 23.79 46.13C22.45 45.63 21.07 45.45 19.75 45.55C16.42 45.8 13.43 47.83 12.24 51.01C12.21 51.08 12.09 51.41 11.86 52.02C12.5 52.26 12.85 52.39 12.92 52.42C14.26 52.92 15.63 53.1 16.95 53C20.28 52.76 23.28 50.73 24.48 47.54Z" id="bDgM4HBWX"></path><path d="M20.66 47.29C20.62 47.38 20.34 48.14 20.3 48.23C20.64 48.41 20.99 48.56 21.35 48.7C22.69 49.2 24.07 49.38 25.39 49.28C28.71 49.03 31.7 47.01 32.9 43.82C32.92 43.76 33.05 43.42 33.28 42.81C32.64 42.57 32.28 42.44 32.21 42.41C30.88 41.91 29.51 41.73 28.19 41.83C24.86 42.07 21.86 44.1 20.66 47.29Z" id="b2Mpkor5rW"></path><path d="M20.79 46.27C20.82 46.18 21.11 45.42 21.14 45.33C21.51 45.42 21.88 45.53 22.24 45.67C23.58 46.17 24.73 46.94 25.66 47.89C28 50.27 28.91 53.76 27.72 56.94C27.69 57.01 27.57 57.35 27.34 57.95C26.7 57.71 26.34 57.58 26.27 57.55C24.94 57.05 23.79 56.29 22.86 55.34C20.51 52.96 19.59 49.46 20.79 46.27Z" id="a2xBg3n7Fv"></path><path d="M23.83 48.6C23.8 48.69 23.51 49.45 23.48 49.54C23.11 49.45 22.74 49.34 22.38 49.21C21.04 48.7 19.89 47.93 18.96 46.98C16.62 44.6 15.71 41.11 16.9 37.93C16.93 37.86 17.05 37.53 17.28 36.92C17.92 37.16 18.28 37.29 18.35 37.32C19.68 37.82 20.83 38.59 21.76 39.53C24.11 41.91 25.03 45.41 23.83 48.6Z" id="k1AwbfLq0n"></path><path d="M35.24 61.49C35.18 61.31 34.72 59.92 34.66 59.75C33.98 59.89 33.31 60.07 32.64 60.29C30.17 61.12 28.02 62.46 26.27 64.12C21.87 68.3 19.98 74.6 21.96 80.47C22 80.59 22.21 81.21 22.58 82.33C23.76 81.93 24.41 81.71 24.54 81.67C27 80.84 29.15 79.52 30.9 77.86C35.32 73.68 37.22 67.37 35.24 61.49Z" id="b1P7nFmC6C"></path><path d="M29.56 65.53C29.62 65.7 30.08 67.09 30.14 67.27C30.82 67.13 31.49 66.95 32.16 66.73C34.63 65.89 36.78 64.56 38.53 62.89C42.93 58.71 44.82 52.42 42.85 46.55C42.8 46.43 42.59 45.8 42.22 44.69C41.04 45.08 40.39 45.3 40.26 45.35C37.8 46.18 35.65 47.5 33.9 49.16C29.48 53.34 27.58 59.65 29.56 65.53Z" id="a1AuYrJfUv"></path><path d="M28.57 63.94C28.51 63.77 28.05 62.38 27.99 62.21C28.61 61.91 29.25 61.64 29.92 61.42C32.39 60.59 34.91 60.35 37.31 60.62C43.35 61.29 48.66 65.16 50.63 71.03C50.67 71.15 50.88 71.78 51.26 72.89C50.08 73.29 49.43 73.51 49.29 73.55C46.84 74.38 44.33 74.62 41.93 74.36C35.88 73.7 30.55 69.83 28.57 63.94Z" id="a8gnBQzf1"></path><path d="M35.54 63.73C35.6 63.9 36.07 65.29 36.13 65.46C35.51 65.76 34.86 66.03 34.2 66.25C31.73 67.08 29.21 67.32 26.8 67.05C20.77 66.38 15.46 62.51 13.49 56.64C13.44 56.52 13.23 55.9 12.86 54.78C14.04 54.38 14.69 54.16 14.82 54.12C17.28 53.29 19.79 53.05 22.19 53.31C28.23 53.97 33.57 57.84 35.54 63.73Z" id="k16Dhu02Ki"></path></defs><g><g><use xlink:href="#aPfxtGen1" opacity="1" fill="url(#gradienta1xMAOsOgt)"></use><g><use xlink:href="#aPfxtGen1" opacity="1" fill-opacity="0" stroke="#000000" stroke-width="1" stroke-opacity="0"></use></g></g><g><g><use xlink:href="#a3aLRUAWH" opacity="0.96" fill="#89e700" fill-opacity="1"></use></g><g><use xlink:href="#c2cgfqlPpl" opacity="0.96" fill="#89e700" fill-opacity="1"></use></g><g><use xlink:href="#dAiBvsTrB" opacity="0.96" fill="#89e700" fill-opacity="1"></use></g><g><use xlink:href="#d830PlFJx" opacity="0.96" fill="#89e700" fill-opacity="1"></use></g></g><g><g><use xlink:href="#bDgM4HBWX" opacity="0.74" fill="#279364" fill-opacity="1"></use></g><g><use xlink:href="#b2Mpkor5rW" opacity="0.74" fill="#279364" fill-opacity="1"></use></g><g><use xlink:href="#a2xBg3n7Fv" opacity="0.74" fill="#279364" fill-opacity="1"></use></g><g><use xlink:href="#k1AwbfLq0n" opacity="0.74" fill="#279364" fill-opacity="1"></use></g></g><g><g><use xlink:href="#b1P7nFmC6C" opacity="0.9" fill="#22c507" fill-opacity="1"></use></g><g><use xlink:href="#a1AuYrJfUv" opacity="0.9" fill="#22c507" fill-opacity="1"></use></g><g><use xlink:href="#a8gnBQzf1" opacity="0.9" fill="#22c507" fill-opacity="1"></use></g><g><use xlink:href="#k16Dhu02Ki" opacity="0.9" fill="#22c507" fill-opacity="1"></use></g></g></g></svg>